<svg width="208" height="47" viewBox="0 0 208 47" fill="none" xmlns="http://www.w3.org/2000/svg">
<path d="M20.984 38V37.04C22.008 36.976 22.776 36.848 23.288 36.656C23.8 36.464 24.136 36.08 24.296 35.504C24.488 34.928 24.584 34.064 24.584 32.912V9.104C24.584 7.92 24.488 7.056 24.296 6.512C24.136 5.936 23.784 5.552 23.24 5.36C22.728 5.136 21.976 5.008 20.984 4.976V4.016C21.848 4.048 22.968 4.08 24.344 4.112C25.752 4.144 27.144 4.16 28.52 4.16C29.992 4.16 31.368 4.144 32.648 4.112C33.96 4.08 35.016 4.048 35.816 4.016V4.976C34.792 5.008 34.008 5.136 33.464 5.36C32.952 5.552 32.616 5.936 32.456 6.512C32.296 7.056 32.216 7.92 32.216 9.104V32.912C32.216 34.064 32.296 34.928 32.456 35.504C32.648 36.08 33 36.464 33.512 36.656C34.024 36.848 34.792 36.976 35.816 37.04V38C35.016 37.936 33.96 37.904 32.648 37.904C31.368 37.872 29.992 37.856 28.52 37.856C27.144 37.856 25.752 37.872 24.344 37.904C22.968 37.904 21.848 37.936 20.984 38ZM0.632 38V37.04C1.656 36.976 2.424 36.848 2.936 36.656C3.448 36.464 3.784 36.08 3.944 35.504C4.136 34.928 4.232 34.064 4.232 32.912V9.104C4.232 7.92 4.136 7.056 3.944 6.512C3.784 5.936 3.432 5.552 2.888 5.36C2.376 5.136 1.624 5.008 0.632 4.976V4.016C1.464 4.048 2.536 4.08 3.848 4.112C5.192 4.144 6.648 4.16 8.216 4.16C9.56 4.16 10.888 4.144 12.2 4.112C13.512 4.08 14.6 4.048 15.464 4.016V4.976C14.44 5.008 13.656 5.136 13.112 5.36C12.6 5.552 12.264 5.936 12.104 6.512C11.944 7.056 11.864 7.92 11.864 9.104V32.912C11.864 34.064 11.944 34.928 12.104 35.504C12.296 36.08 12.648 36.464 13.16 36.656C13.672 36.848 14.44 36.976 15.464 37.04V38C14.6 37.936 13.512 37.904 12.2 37.904C10.888 37.872 9.56 37.856 8.216 37.856C6.648 37.856 5.192 37.872 3.848 37.904C2.536 37.904 1.464 37.936 0.632 38ZM8.744 21.392V20.432H27.704V21.392H8.744ZM50.036 12.512C52.852 12.512 55.06 13.344 56.66 15.008C58.26 16.672 59.06 19.392 59.06 23.168H43.268L43.172 22.256H53.012C53.044 20.688 52.948 19.248 52.724 17.936C52.5 16.592 52.148 15.52 51.668 14.72C51.188 13.92 50.548 13.52 49.748 13.52C48.628 13.52 47.668 14.224 46.868 15.632C46.1 17.04 45.636 19.376 45.476 22.64L45.62 22.928C45.588 23.312 45.556 23.712 45.524 24.128C45.524 24.544 45.524 24.976 45.524 25.424C45.524 27.632 45.828 29.424 46.436 30.8C47.076 32.176 47.876 33.184 48.836 33.824C49.796 34.432 50.772 34.736 51.764 34.736C52.436 34.736 53.124 34.64 53.828 34.448C54.564 34.224 55.3 33.84 56.036 33.296C56.772 32.72 57.46 31.92 58.1 30.896L58.964 31.184C58.58 32.4 57.972 33.584 57.14 34.736C56.308 35.888 55.252 36.832 53.972 37.568C52.692 38.304 51.156 38.672 49.364 38.672C47.188 38.672 45.268 38.208 43.604 37.28C41.94 36.352 40.628 34.944 39.668 33.056C38.74 31.168 38.276 28.768 38.276 25.856C38.276 22.88 38.772 20.4 39.764 18.416C40.788 16.432 42.18 14.96 43.94 14C45.732 13.008 47.764 12.512 50.036 12.512ZM79.4143 12.512C80.7583 12.512 81.8463 12.688 82.6783 13.04C83.5423 13.36 84.2143 13.808 84.6943 14.384C85.2063 14.992 85.5743 15.776 85.7983 16.736C86.0543 17.696 86.1823 18.992 86.1823 20.624V33.536C86.1823 34.88 86.4062 35.792 86.8542 36.272C87.3343 36.752 88.1343 36.992 89.2543 36.992V38C88.6463 37.968 87.7343 37.936 86.5183 37.904C85.3023 37.84 84.1023 37.808 82.9183 37.808C81.7023 37.808 80.5023 37.84 79.3183 37.904C78.1663 37.936 77.2863 37.968 76.6783 38V36.992C77.6383 36.992 78.3103 36.752 78.6943 36.272C79.0783 35.792 79.2703 34.88 79.2703 33.536V18.608C79.2703 17.808 79.1903 17.12 79.0303 16.544C78.8703 15.936 78.5823 15.472 78.1663 15.152C77.7503 14.8 77.1263 14.624 76.2943 14.624C75.4303 14.624 74.6303 14.864 73.8943 15.344C73.1903 15.824 72.6143 16.496 72.1663 17.36C71.7503 18.192 71.5423 19.136 71.5423 20.192V33.536C71.5423 34.88 71.7343 35.792 72.1183 36.272C72.5343 36.752 73.2063 36.992 74.1343 36.992V38C73.5583 37.968 72.7103 37.936 71.5903 37.904C70.5023 37.84 69.3663 37.808 68.1823 37.808C66.9663 37.808 65.7183 37.84 64.4383 37.904C63.1583 37.936 62.1983 37.968 61.5583 38V36.992C62.6783 36.992 63.4623 36.752 63.9103 36.272C64.3903 35.792 64.6303 34.88 64.6303 33.536V18.416C64.6303 16.976 64.4063 15.92 63.9583 15.248C63.5423 14.544 62.7423 14.192 61.5583 14.192V13.184C62.5823 13.28 63.5743 13.328 64.5343 13.328C65.8783 13.328 67.1263 13.28 68.2783 13.184C69.4623 13.056 70.5503 12.88 71.5423 12.656V16.976C72.3423 15.344 73.4303 14.192 74.8063 13.52C76.1823 12.848 77.7183 12.512 79.4143 12.512ZM107.555 12.512C108.579 12.512 109.411 12.736 110.051 13.184C110.691 13.6 111.155 14.144 111.443 14.816C111.763 15.488 111.923 16.192 111.923 16.928C111.923 18.112 111.571 19.088 110.867 19.856C110.195 20.592 109.299 20.96 108.179 20.96C107.059 20.96 106.179 20.688 105.539 20.144C104.931 19.568 104.627 18.816 104.627 17.888C104.627 16.992 104.819 16.256 105.203 15.68C105.619 15.072 106.131 14.56 106.739 14.144C106.291 14.016 105.843 14.032 105.395 14.192C104.787 14.288 104.211 14.544 103.667 14.96C103.123 15.344 102.659 15.84 102.275 16.448C101.891 17.024 101.587 17.664 101.363 18.368C101.139 19.04 101.027 19.696 101.027 20.336V33.056C101.027 34.592 101.395 35.632 102.131 36.176C102.899 36.72 104.035 36.992 105.539 36.992V38C104.803 37.968 103.731 37.936 102.323 37.904C100.915 37.84 99.4426 37.808 97.9066 37.808C96.6266 37.808 95.3306 37.84 94.0186 37.904C92.7066 37.936 91.7146 37.968 91.0426 38V36.992C92.1626 36.992 92.9466 36.752 93.3946 36.272C93.8746 35.792 94.1146 34.88 94.1146 33.536V18.416C94.1146 16.976 93.8906 15.92 93.4426 15.248C93.0266 14.544 92.2266 14.192 91.0426 14.192V13.184C92.0666 13.28 93.0586 13.328 94.0186 13.328C95.3626 13.328 96.6106 13.28 97.7626 13.184C98.9466 13.056 100.035 12.88 101.027 12.656V17.12C101.411 16.256 101.923 15.472 102.563 14.768C103.203 14.064 103.939 13.52 104.771 13.136C105.603 12.72 106.531 12.512 107.555 12.512ZM119.689 0.799998C121.033 0.799998 122.089 1.136 122.857 1.808C123.657 2.448 124.057 3.344 124.057 4.496C124.057 5.648 123.657 6.56 122.857 7.232C122.089 7.872 121.033 8.192 119.689 8.192C118.345 8.192 117.273 7.872 116.473 7.232C115.705 6.56 115.321 5.648 115.321 4.496C115.321 3.344 115.705 2.448 116.473 1.808C117.273 1.136 118.345 0.799998 119.689 0.799998ZM123.433 12.656V33.536C123.433 34.88 123.657 35.792 124.105 36.272C124.585 36.752 125.385 36.992 126.505 36.992V38C125.929 37.968 125.033 37.936 123.817 37.904C122.601 37.84 121.369 37.808 120.121 37.808C118.873 37.808 117.609 37.84 116.329 37.904C115.049 37.936 114.089 37.968 113.449 38V36.992C114.569 36.992 115.353 36.752 115.801 36.272C116.281 35.792 116.521 34.88 116.521 33.536V18.416C116.521 16.976 116.297 15.92 115.849 15.248C115.433 14.544 114.633 14.192 113.449 14.192V13.184C114.473 13.28 115.465 13.328 116.425 13.328C117.769 13.328 119.017 13.28 120.169 13.184C121.353 13.056 122.441 12.88 123.433 12.656ZM139.726 12.512C141.23 12.512 142.526 12.72 143.614 13.136C144.702 13.52 145.646 14.256 146.446 15.344L145.726 15.584C145.246 14.848 144.638 14.32 143.902 14C143.166 13.68 142.382 13.52 141.549 13.52C139.886 13.52 138.622 14.512 137.758 16.496C136.894 18.48 136.462 21.504 136.462 25.568C136.462 28.288 136.654 30.464 137.038 32.096C137.422 33.696 137.95 34.848 138.622 35.552C139.326 36.256 140.142 36.608 141.07 36.608C142.126 36.608 143.086 36.144 143.95 35.216C144.846 34.288 145.326 33.024 145.39 31.424L145.63 33.104C145.15 34.928 144.35 36.32 143.23 37.28C142.11 38.208 140.718 38.672 139.054 38.672C137.23 38.672 135.566 38.208 134.062 37.28C132.59 36.352 131.406 34.928 130.51 33.008C129.646 31.056 129.214 28.544 129.214 25.472C129.214 22.56 129.662 20.16 130.558 18.272C131.454 16.352 132.686 14.912 134.254 13.952C135.854 12.992 137.678 12.512 139.726 12.512ZM151.774 12.416L152.494 12.8C152.366 13.216 152.27 13.664 152.206 14.144C152.174 14.592 152.158 15.056 152.158 15.536V42.416C152.158 43.696 152.366 44.56 152.781 45.008C153.23 45.456 153.982 45.68 155.038 45.68V46.688C154.462 46.656 153.614 46.608 152.494 46.544C151.374 46.512 150.206 46.496 148.99 46.496C147.39 46.496 145.854 46.512 144.382 46.544C142.91 46.608 141.758 46.656 140.926 46.688V45.68C142.302 45.68 143.358 45.424 144.094 44.912C144.862 44.432 145.246 43.44 145.246 41.936V14.432C146.078 14.496 146.91 14.448 147.742 14.288C148.574 14.128 149.342 13.888 150.046 13.568C150.782 13.216 151.358 12.832 151.774 12.416ZM180.572 12.656V32.768C180.572 34.208 180.796 35.28 181.244 35.984C181.692 36.656 182.492 36.992 183.644 36.992V38C182.652 37.904 181.66 37.856 180.668 37.856C179.324 37.856 178.076 37.904 176.924 38C175.772 38.096 174.684 38.272 173.66 38.528V34.208C172.892 35.808 171.82 36.96 170.444 37.664C169.1 38.336 167.596 38.672 165.932 38.672C164.588 38.672 163.5 38.496 162.668 38.144C161.836 37.792 161.18 37.344 160.7 36.8C160.156 36.192 159.772 35.392 159.548 34.4C159.324 33.408 159.212 32.128 159.212 30.56V18.416C159.212 16.976 158.988 15.92 158.54 15.248C158.124 14.544 157.324 14.192 156.14 14.192V13.184C157.164 13.28 158.156 13.328 159.116 13.328C160.46 13.328 161.708 13.28 162.86 13.184C164.044 13.056 165.132 12.88 166.124 12.656V32.528C166.124 33.328 166.188 34.032 166.316 34.64C166.476 35.248 166.764 35.728 167.18 36.08C167.596 36.4 168.204 36.56 169.004 36.56C169.868 36.56 170.636 36.32 171.308 35.84C172.012 35.36 172.572 34.704 172.988 33.872C173.436 33.008 173.66 32.048 173.66 30.992V18.416C173.66 16.976 173.436 15.92 172.988 15.248C172.572 14.544 171.772 14.192 170.588 14.192V13.184C171.612 13.28 172.604 13.328 173.564 13.328C174.908 13.328 176.156 13.28 177.308 13.184C178.492 13.056 179.58 12.88 180.572 12.656ZM198.161 12.512C200.977 12.512 203.185 13.344 204.785 15.008C206.385 16.672 207.185 19.392 207.185 23.168H191.393L191.297 22.256H201.137C201.169 20.688 201.073 19.248 200.849 17.936C200.625 16.592 200.273 15.52 199.793 14.72C199.313 13.92 198.673 13.52 197.873 13.52C196.753 13.52 195.793 14.224 194.993 15.632C194.225 17.04 193.761 19.376 193.601 22.64L193.745 22.928C193.713 23.312 193.681 23.712 193.649 24.128C193.649 24.544 193.649 24.976 193.649 25.424C193.649 27.632 193.953 29.424 194.561 30.8C195.201 32.176 196.001 33.184 196.961 33.824C197.921 34.432 198.897 34.736 199.889 34.736C200.561 34.736 201.249 34.64 201.953 34.448C202.689 34.224 203.425 33.84 204.161 33.296C204.897 32.72 205.585 31.92 206.225 30.896L207.089 31.184C206.705 32.4 206.097 33.584 205.265 34.736C204.433 35.888 203.377 36.832 202.097 37.568C200.817 38.304 199.281 38.672 197.489 38.672C195.313 38.672 193.393 38.208 191.729 37.28C190.065 36.352 188.753 34.944 187.793 33.056C186.865 31.168 186.401 28.768 186.401 25.856C186.401 22.88 186.897 20.4 187.889 18.416C188.913 16.432 190.305 14.96 192.065 14C193.857 13.008 195.889 12.512 198.161 12.512Z" fill="black"/>
</svg>
