<svg width="20" height="19" viewBox="0 0 20 19" fill="none" xmlns="http://www.w3.org/2000/svg">
<path d="M11.3258 18.7065C10.9721 18.7065 10.7145 18.5896 10.553 18.3557C10.3916 18.1219 10.3723 17.8335 10.4954 17.4905L13.8862 8.37114C13.9784 8.12173 14.1476 7.91128 14.3936 7.7398C14.6397 7.56833 14.8934 7.48259 15.1548 7.48259C15.4163 7.48259 15.6738 7.56833 15.9276 7.7398C16.1813 7.91128 16.3543 8.12173 16.4466 8.37114L19.9066 17.397C20.045 17.7556 20.0296 18.0634 19.8604 18.3206C19.6913 18.5779 19.4068 18.7065 19.007 18.7065C18.8378 18.7065 18.6764 18.6519 18.5226 18.5428C18.3688 18.4337 18.2612 18.2934 18.1996 18.1219L17.4384 15.7602H13.0096L12.1331 18.1453C12.0716 18.3012 11.9639 18.4337 11.8102 18.5428C11.6564 18.6519 11.4949 18.7065 11.3258 18.7065ZM13.5171 14.1234H16.7926L15.1779 9.58706H15.1318L13.5171 14.1234ZM5.74361 6.12637C5.97428 6.53168 6.22801 6.92529 6.50482 7.30721C6.78162 7.68914 7.08148 8.08275 7.40442 8.48806C8.09642 7.75539 8.67309 6.99544 9.13442 6.20821C9.59576 5.42098 9.98789 4.59867 10.3108 3.74129H0.922669C0.661246 3.74129 0.442112 3.65166 0.265267 3.47239C0.0884225 3.29312 0 3.07098 0 2.80597C0 2.54096 0.0884225 2.31882 0.265267 2.13955C0.442112 1.96028 0.661246 1.87065 0.922669 1.87065H6.45868V0.935323C6.45868 0.670315 6.5471 0.448176 6.72395 0.268905C6.90079 0.0896351 7.11993 0 7.38135 0C7.64277 0 7.86191 0.0896351 8.03875 0.268905C8.2156 0.448176 8.30402 0.670315 8.30402 0.935323V1.87065H13.84C14.1015 1.87065 14.3206 1.96028 14.4974 2.13955C14.6743 2.31882 14.7627 2.54096 14.7627 2.80597C14.7627 3.07098 14.6743 3.29312 14.4974 3.47239C14.3206 3.65166 14.1015 3.74129 13.84 3.74129H12.1562C11.8179 4.81692 11.368 5.87305 10.8068 6.9097C10.2455 7.94635 9.55731 8.93234 8.74229 9.86766L11.0028 12.1826L10.3108 14.0766L7.38135 11.2239L3.39081 15.2692C3.22165 15.4406 3.01405 15.5264 2.76801 15.5264C2.52196 15.5264 2.31436 15.4328 2.14521 15.2458C1.96067 15.0743 1.8684 14.8638 1.8684 14.6144C1.8684 14.365 1.96067 14.1468 2.14521 13.9597L6.20495 9.84428C5.80512 9.36103 5.42837 8.87388 5.07468 8.38284C4.72099 7.89179 4.39805 7.38906 4.10588 6.87463C3.92134 6.53168 3.90596 6.23549 4.05974 5.98607C4.21352 5.73665 4.49032 5.61194 4.89014 5.61194C5.0593 5.61194 5.22461 5.6626 5.38608 5.76393C5.54755 5.86526 5.66672 5.98607 5.74361 6.12637Z" fill="url(#paint0_linear_6_235)"/>
<defs>
<linearGradient id="paint0_linear_6_235" x1="10" y1="0" x2="10" y2="18.7065" gradientUnits="userSpaceOnUse">
<stop stop-color="#55A6F1"/>
<stop offset="1" stop-color="#1F6FB9"/>
</linearGradient>
</defs>
</svg>
